<svg xmlns="http://www.w3.org/2000/svg" viewBox="0 0 203 38" width="203" height="38">
	<defs>
		<clipPath clipPathUnits="userSpaceOnUse" id="cp1">
			<path d="M1 1L202 1L202 37L1 37Z" />
		</clipPath>
	</defs>
	<style>
		tspan { white-space:pre }
		.shp0 { fill: #111111 } 
	</style>
	<g id="Page 1" clip-path="url(#cp1)">
		<path id="Path 1" fill-rule="evenodd" class="shp0" d="M3.45 33.98C1.82 31.97 1 29.07 1 25.27L1 12.6C1 8.72 1.81 5.79 3.43 3.8C5.04 1.82 7.8 0.83 11.72 0.83C15.45 0.83 18.09 1.71 19.65 3.48C21.21 5.24 21.99 7.75 21.99 10.99L21.99 14.03L14.27 14.03L14.27 10.51C14.27 9.15 14.13 8.11 13.83 7.39C13.54 6.66 12.83 6.3 11.72 6.3C10.6 6.3 9.86 6.68 9.51 7.45C9.16 8.22 8.98 9.28 8.98 10.64L8.98 27.19C8.98 28.57 9.16 29.64 9.53 30.38C9.9 31.12 10.63 31.49 11.72 31.49C12.8 31.49 13.5 31.12 13.81 30.38C14.12 29.64 14.27 28.57 14.27 27.19L14.27 23.5L21.99 23.5L21.99 26.53C21.99 29.83 21.21 32.4 19.65 34.24C18.09 36.08 15.45 37 11.72 37C7.83 37 5.08 35.99 3.45 33.98ZM31.39 1.31L40.38 1.31L47.05 36.48L39.77 36.48L38.58 29.05L33.33 29.05L32.1 36.48L24.64 36.48L31.39 1.31ZM37.83 24.41L35.93 10.69L34.04 24.41L37.83 24.41ZM52.5 7.08L47.12 7.08L47.12 1.31L65.78 1.31L65.78 7.08L60.44 7.08L60.44 36.48L52.5 36.48L52.5 7.08ZM80.06 1.31L93.91 1.31L93.91 4.95L85.05 4.95L85.05 16.59L92.23 16.59L92.23 20.07L85.05 20.07L85.05 32.96L94 32.96L94 36.48L80.06 36.48L80.06 1.31ZM97.98 1.31L101.37 1.31L111.52 24.67L111.52 1.31L115.66 1.31L115.66 36.48L112.49 36.48L102.21 12.46L102.21 36.48L97.98 36.48L97.98 1.31ZM120.62 1.31L134.47 1.31L134.47 4.95L125.61 4.95L125.61 16.59L132.79 16.59L132.79 20.07L125.61 20.07L125.61 32.96L134.56 32.96L134.56 36.48L120.62 36.48L120.62 1.31ZM138.54 1.31L145.72 1.31C149.34 1.31 151.99 2.04 153.68 3.5C155.37 4.96 156.22 7.34 156.22 10.64C156.22 15.16 154.75 17.89 151.81 18.85L156.88 36.48L152.07 36.48L147.4 19.98L143.52 19.98L143.52 36.48L138.54 36.48L138.54 1.31ZM145.41 16.46C147.56 16.46 149.1 16.04 150.02 15.2C150.95 14.36 151.41 12.84 151.41 10.64C151.41 9.2 151.25 8.06 150.93 7.23C150.6 6.41 150.03 5.8 149.21 5.41C148.38 5.02 147.22 4.82 145.72 4.82L143.52 4.82L143.52 16.46L145.41 16.46ZM162.62 33.89C161.18 31.88 160.46 28.9 160.46 24.93L160.46 13.16C160.46 10.44 160.75 8.2 161.32 6.45C161.9 4.7 162.88 3.35 164.28 2.41C165.67 1.47 167.59 1 170.03 1C173.33 1 175.7 1.83 177.16 3.48C178.61 5.13 179.34 7.72 179.34 11.25L179.34 12.55L174.66 12.55L174.66 11.47C174.66 9.79 174.56 8.49 174.35 7.58C174.15 6.67 173.71 5.98 173.05 5.52C172.39 5.05 171.41 4.82 170.12 4.82C168.74 4.82 167.71 5.13 167.03 5.76C166.36 6.38 165.92 7.21 165.73 8.25C165.54 9.29 165.44 10.69 165.44 12.42L165.44 25.45C165.44 28.14 165.78 30.07 166.44 31.25C167.1 32.42 168.37 33 170.25 33C172.1 33 173.38 32.37 174.07 31.09C174.76 29.82 175.1 27.78 175.1 24.97L175.1 22.54L170.56 22.54L170.56 19.07L179.6 19.07L179.6 36.48L176.47 36.48L175.99 32.44C174.87 35.42 172.75 36.91 169.64 36.91C166.4 36.91 164.06 35.91 162.62 33.89ZM189.56 24.06L181.85 1.31L186.48 1.31L191.95 18.28L197.33 1.31L202 1.31L194.33 24.06L194.33 36.48L189.56 36.48L189.56 24.06Z" />
	</g>
</svg>