<svg xmlns="http://www.w3.org/2000/svg" viewBox="0 0 54 69" width="54" height="69">
	<defs>
		<clipPath clipPathUnits="userSpaceOnUse" id="cp1">
			<path d="M0 1L54 1L54 69L0 69Z" />
		</clipPath>
	</defs>
	<style>
		tspan { white-space:pre }
		.shp0 { fill: #000000 } 
	</style>
	<g id="Page 1" clip-path="url(#cp1)">
		<path id="Path 1" fill-rule="evenodd" class="shp0" d="M27.24 0.85L53.89 3.64L53.89 52.97L53.81 53.02L26.95 69L0 52.97L0 3.64L26.95 0.82L27.24 0.85ZM3.85 25.06L26.64 11.49L26.64 11.27L26.81 11.38L26.99 11.28L26.99 11.49L50.04 25.07L50.04 25.07L50.04 7.11L26.95 4.69L3.85 7.11L3.85 25.06ZM26.78 41.57L30.38 39.4L26.67 37.22L26.7 34.4L32.76 37.97L34.33 36.92L26.67 32.37L26.7 29.54L36.76 35.53L38.48 34.51L26.67 27.49L26.7 24.66L40.89 33.1L49.85 27.82L26.81 14.4L4.07 28.06L26.78 41.57ZM26.95 54.9L26.85 54.86L10.81 45.21L10.84 42.38L26.79 51.86L26.75 49.71L10.79 40.12L10.82 37.29L26.7 46.75L26.67 44.66L3.85 31.07L3.85 50.78L26.95 64.52L50.04 50.78L50.04 30.73L43.21 34.81L43.23 45.16L26.95 54.9Z" />
	</g>
</svg>