<svg xmlns="http://www.w3.org/2000/svg" viewBox="0 0 67 76" width="67" height="76">
	<defs>
		<clipPath clipPathUnits="userSpaceOnUse" id="cp1">
			<path d="M0 1L67 1L67 76L0 76Z" />
		</clipPath>
	</defs>
	<style>
		tspan { white-space:pre }
		.shp0 { fill: #fdc305 } 
		.shp1 { fill: #f06351 } 
		.shp2 { fill: #000000 } 
	</style>
	<g id="Page 1" clip-path="url(#cp1)">
		<path id="Path 1" class="shp0" d="M12.14 42.22L12.25 37.69C25.58 35.87 39.12 34.95 52.58 35.03C52.56 36.24 52.52 37.45 52.46 38.67C52.46 38.67 58.31 35.97 64.53 35.04C59.8 22.39 47.6 13.39 33.31 13.39C16.66 13.39 2.86 25.59 0.37 41.54C4.72 41.81 12.14 42.22 12.14 42.22ZM54.48 49.23C52.16 51.8 51.69 51.63 51.69 56.14C51.69 57.96 51.75 65.94 51.76 74.48C60.73 68.51 66.64 58.31 66.64 46.73C66.64 44.62 66.44 42.56 66.07 40.57C62.44 42.7 56.45 47.05 54.48 49.23ZM12.72 52.2C12.72 52.2 5.13 49.32 2.35 48.56C1.5 48.32 0.74 48.1 0 47.99C0.45 60.09 7.35 70.54 17.36 76L12.72 52.2Z" />
		<path id="Path 2" class="shp1" d="M52.59 35.02C52.88 18.06 49.79 2.08 49.79 2.08C49.79 2.08 49.5 -0.51 48.06 1.6C46.62 3.71 45.66 9.47 45.66 9.47C30.78 8.61 20.12 10.14 20.12 10.14C18.49 4.67 15.71 2.27 14.36 2.85C13.02 3.43 12.92 9.47 12.92 9.47L12.26 37.68C25.59 35.86 39.13 34.94 52.59 35.02Z" />
		<path id="Path 3" class="shp2" d="M24.83 28.77C24.73 28.59 26.87 30.13 27.64 30.61C28.41 31.09 28.86 31.46 28.86 31.79C28.86 32.13 28.33 32.46 27.61 32.46C26.89 32.46 25.79 32.22 25.69 31.94C25.69 31.94 26.89 31.89 27.56 31.89L28.14 31.89C28.14 31.89 25.35 29.82 24.83 28.77ZM39.77 29C39.77 29 37.68 31.54 37.6 31.66C37.52 31.78 37.27 32.34 37.97 32.25C38.67 32.15 40.19 31.8 40.41 31.68C40.62 31.56 40.54 31.29 40.17 31.33C39.76 31.37 38.81 31.43 38.2 31.54L39.88 29.02C39.88 29.02 39.94 28.79 39.77 29ZM33.51 41.18C33.51 41.18 35.13 40.47 35.69 39.16C36.24 37.85 35.76 37.34 34.8 37.2C33.85 37.07 32.12 37.14 31.33 37.88C30.54 38.62 30.65 39.34 31.22 39.79C31.8 40.24 32.91 41 33.51 41.18Z" />
		<path id="Path 4" class="shp1" d="M32.7 43.68C32.7 43.68 32.34 44.42 31.78 44.87C31.29 45.25 30.65 45.59 29.75 45.64C28.47 45.71 27.63 45.3 26.84 44.75C26.44 44.47 26.05 44.24 25.78 43.87C25.46 43.5 25.07 43.36 25.07 43.36C25.07 43.36 26.56 51.56 30.2 52.85C33.83 54.15 34.48 51.35 34.6 50.59C34.69 49.94 34.6 46.42 32.96 44.14C32.93 43.53 32.9 43.94 32.7 43.68Z" />
		<path id="Path 5" class="shp2" d="M29.42 45.95L29.38 45.95C26.8 45.92 24.8 43.22 24.72 43.11C24.62 42.98 24.65 42.8 24.78 42.71C24.91 42.61 25.09 42.64 25.18 42.77C25.2 42.8 27.1 45.35 29.39 45.37L29.42 45.37C30.58 45.37 31.68 44.7 32.67 43.39L32.96 43.01L33.16 43.44C33.17 43.45 33.91 44.95 35.14 45.03C36.13 45.09 37.24 44.2 38.37 42.47C38.46 42.34 38.63 42.3 38.77 42.39C38.9 42.47 38.94 42.65 38.85 42.78C37.59 44.73 36.32 45.68 35.1 45.6C33.97 45.53 33.21 44.61 32.86 44.07C31.83 45.32 30.67 45.95 29.42 45.95Z" />
		<path id="Path 6" class="shp1" d="M52.47 38.62C52.47 38.62 47.38 43.11 42.34 49C37.3 54.9 31.76 58.75 31.76 58.75C31.33 57.7 28.52 55.74 28.52 55.74C28.52 55.74 22.26 51.46 18.15 48.09C15.79 46.16 13.46 43.76 11.9 42.07C11.32 42.04 9.77 41.95 7.89 41.85C17.27 55.79 31.83 59.45 31.83 59.45C33.56 59.17 38.38 55.74 41.98 52.93C45.58 50.12 51.49 43.88 53.86 41.15C55.07 39.76 55.75 38.31 56.14 37.2C53.92 37.97 52.47 38.62 52.47 38.62Z" />
	</g>
</svg>