<svg xmlns="http://www.w3.org/2000/svg" viewBox="0 0 62 33" width="62" height="33">
	<defs>
		<clipPath clipPathUnits="userSpaceOnUse" id="cp1">
			<path d="M1 0L61 0L61 32L1 32Z" />
		</clipPath>
	</defs>
	<style>
		tspan { white-space:pre }
		.shp0 { fill: #000000 } 
	</style>
	<g id="Page 1" clip-path="url(#cp1)">
		<path id="Path 1" fill-rule="evenodd" class="shp0" d="M48.88 32C48.1 32 46.54 31.84 44.73 30.74C43.44 29.96 42.28 28.8 41.16 27.67C40.28 26.79 38.82 25.32 38.26 25.32C37.73 25.47 37.3 27.16 37.31 28.45C37.32 28.68 37.31 30 36.38 30.88C35.53 31.68 34.2 31.85 33.94 31.88L30.09 31.89C28.16 31.89 21.38 31.45 15.23 25.85C7.89 19.13 1.56 6.25 1.3 5.71C0.9 4.79 0.8 3.58 1.6 2.75C2.39 1.92 3.76 1.8 4.32 1.79L12.49 1.74L12.72 1.76C12.9 1.78 13.85 1.94 14.63 2.45C15.41 2.95 15.81 3.76 15.88 3.91C15.9 3.96 17.18 6.78 18.83 9.28C21.46 13.26 22.62 14.19 23.04 14.4C23.41 13.57 23.59 11.01 23.41 8.66C23.41 7.68 23.21 6.47 22.91 6.11C22.68 5.84 22.06 5.6 21.35 5.52L19.91 4.14C19.72 2.82 21.18 1.69 22.21 1.25C23.68 0.61 25.79 0.48 28.5 0.48L29.92 0.49C32.39 0.52 33.16 0.65 34.22 0.87C37.62 1.6 37.5 4.33 37.35 7.5C37.31 8.43 37.26 9.5 37.26 10.74C37.26 11.04 37.25 11.36 37.24 11.7C37.22 12.46 37.17 13.77 37.42 14.31C37.86 14.02 39.13 12.98 41.57 9.34C43.14 7.01 44.37 4.26 44.6 3.73L44.6 3.73C44.97 2.87 45.82 1.85 47.83 1.84L56.38 1.79C56.4 1.79 56.72 1.76 57.13 1.76C59.09 1.76 60.33 2.33 60.8 3.47C61.33 4.77 61.14 6.78 56.09 12.68C55.35 13.54 54.69 14.29 54.12 14.93C52.93 16.29 51.69 17.69 51.65 18.12C51.76 18.46 52.97 19.45 54.15 20.41C57.22 22.91 59.21 24.94 60.22 26.56C61.26 28.08 61.08 29.22 60.74 29.91C59.89 31.64 57.46 31.86 56.98 31.88L49.4 31.98C49.29 31.99 49.11 32 48.88 32ZM38.26 22.32C40.06 22.32 41.63 23.89 43.28 25.56C44.28 26.56 45.31 27.59 46.28 28.17C47.73 29.05 48.91 29.01 49.07 28.99L49.28 28.98L56.89 28.88C57.23 28.86 57.71 28.74 57.96 28.61C57.92 28.53 57.86 28.42 57.76 28.28C56.87 26.84 54.99 24.96 52.39 22.84C50.02 20.91 48.79 19.91 48.66 18.35C48.53 16.74 49.65 15.47 51.88 12.95C52.44 12.31 53.08 11.58 53.81 10.73C56.93 7.09 57.72 5.45 57.93 4.82C57.59 4.76 56.63 4.77 56.57 4.78L47.85 4.84C47.47 4.84 47.35 4.9 47.35 4.91C47 5.74 45.73 8.53 44.06 11.01C40.27 16.65 38.49 17.41 37.25 17.41C36.84 17.41 36.46 17.31 36.11 17.11C34.1 15.98 34.18 13.45 34.24 11.6C34.25 11.3 34.26 11.01 34.26 10.74C34.26 9.45 34.31 8.32 34.36 7.36C34.51 4 34.39 3.98 33.6 3.81C32.78 3.64 32.19 3.51 29.89 3.49L28.5 3.48C27.25 3.48 25.82 3.51 24.69 3.68C24.87 3.82 25.05 3.99 25.21 4.18C26.38 5.59 26.42 8.08 26.41 8.57C26.67 11.86 26.53 16.16 24.37 17.19C23.99 17.38 23.59 17.47 23.18 17.47C21.33 17.47 19.47 15.69 16.33 10.93C14.54 8.22 13.21 5.28 13.16 5.16C13.13 5.11 13.05 5 13.01 4.97C12.84 4.86 12.54 4.78 12.37 4.74L4.36 4.79C4.32 4.79 4.27 4.79 4.22 4.8C5.41 7.17 11.08 17.98 17.26 23.63C22.74 28.64 28.91 28.89 30.1 28.89L33.8 28.88C33.89 28.87 34.22 28.77 34.33 28.69C34.3 28.7 34.32 28.57 34.32 28.49C34.31 27.96 34.34 23.3 37.47 22.42C37.72 22.36 37.99 22.32 38.26 22.32ZM34.33 28.69C34.33 28.69 34.33 28.69 34.34 28.69C34.33 28.69 34.33 28.69 34.33 28.69Z" />
	</g>
</svg>