<svg xmlns="http://www.w3.org/2000/svg" viewBox="0 0 404 120" width="404" height="120">
	<defs>
		<clipPath clipPathUnits="userSpaceOnUse" id="cp1">
			<path d="M0 0L404 0L404 119L0 119Z" />
		</clipPath>
	</defs>
	<style>
		tspan { white-space:pre }
		.shp0 { fill: #fdc305 } 
		.shp1 { fill: #f06351 } 
		.shp2 { fill: #e55645 } 
		.shp3 { fill: #000000 } 
		.shp4 { fill: #111111 } 
		.shp5 { fill: #444444 } 
	</style>
	<g id="Page 1" clip-path="url(#cp1)">
		<path id="Path 1" fill-rule="evenodd" class="shp0" d="M92.25 115.03C89.58 116.15 86.85 117.02 84.12 117.66C84.69 117.07 85.29 116.23 85.78 115.35C87.18 112.84 89.48 103.74 90.58 95.21C90.62 94.92 90.66 94.63 90.69 94.35C90.7 94.32 90.7 94.3 90.7 94.27C89.18 97.05 87.16 99.57 84.9 101.7C84.59 106.04 82.98 112.79 82.4 116.51C82.3 117.23 82.3 117.72 82.38 118.04C78.82 118.74 75.23 119.05 71.69 118.99C71.37 114.18 71.13 109.86 71.13 109.86C71.14 109.85 71.16 109.85 71.17 109.84C67.81 108.34 64.63 106.71 61.63 104.73C62.69 109.64 63.85 114.26 65.01 118.44C47.86 115.89 32.43 104.68 25.26 87.52C14.35 61.42 26.67 31.42 52.77 20.52C78.87 9.61 108.86 21.93 119.77 48.03C130.67 74.13 118.35 104.12 92.25 115.03ZM118.55 52.03C117.29 49.43 115.37 46.73 114.89 45.96C114.4 45.19 110.26 40.08 109.58 39.22C108.91 38.35 108.04 38.44 108.04 38.44C100.52 38.35 91.75 42.4 91.75 42.4C91.81 41.18 91.85 39.96 91.87 38.74C78.36 38.66 64.77 39.59 51.38 41.41L51.27 45.96C51.27 45.96 38.94 45.29 36.72 45.1C34.5 44.9 34.22 45.58 34.22 45.58C32.48 46.83 30.07 51.36 30.07 51.36C30.07 51.36 27.47 55.41 26.22 58.78C24.96 62.15 25.16 65.05 26.79 65.05C28.43 65.05 30.94 65.14 30.84 64.18C30.75 63.21 29.88 61.29 29.88 61.29C29.88 61.29 29.78 56.18 33.35 53.58C36.91 50.97 38.65 51.55 41.44 52.32C44.24 53.09 51.85 55.99 51.85 55.99L56.99 82.36C57.03 82.36 57.06 82.36 57.09 82.37C57.12 82.37 57.14 82.38 57.16 82.38C57.16 82.38 57.16 82.38 57.17 82.38C57.21 82.39 57.23 82.39 57.25 82.39L57.25 82.39L59.27 94.06C59.27 94.06 62.94 93.67 74.89 90.49C86.84 87.31 91.18 86.15 91.18 86.15C91.42 76.27 90.98 63.36 90.98 59.94C90.98 55.41 91.45 55.58 93.78 53C96.48 50.01 106.69 42.98 108.14 43.07C109.58 43.17 113.44 50.01 113.44 50.01C113.44 50.01 113.54 51.84 113.82 54.44C114.11 57.05 115.94 56.47 116.81 55.6C117.68 54.73 118.55 52.03 118.55 52.03Z" />
		<path id="Path 2" class="shp1" d="M112.91 43.39C113.86 44.58 114.68 45.64 114.88 45.96C115.37 46.73 117.29 49.43 118.55 52.04C118.55 52.04 117.68 54.73 116.81 55.6C115.94 56.47 114.11 57.05 113.82 54.44C113.53 51.84 113.44 50.01 113.44 50.01C113.44 50.01 109.58 43.17 108.14 43.07C106.69 42.98 96.48 50.01 93.78 53C91.45 55.58 90.98 55.41 90.98 59.94C90.98 62.94 91.32 73.24 91.24 82.39C94.86 82.81 100.17 83.81 101.78 86.15C101.78 86.15 101.2 71.79 117.39 79.31C117.39 79.31 117.97 59.75 140.33 64.76C140.33 64.76 128.99 50.84 112.91 43.39ZM91.87 38.74C92.16 21.71 89.06 5.68 89.06 5.68C89.06 5.68 88.77 3.07 87.32 5.19C85.87 7.31 84.91 13.1 84.91 13.1C69.97 12.23 59.27 13.77 59.27 13.77C57.64 8.28 54.84 5.87 53.49 6.45C52.14 7.02 52.05 13.1 52.05 13.1L51.38 41.41C64.77 39.59 78.36 38.66 91.87 38.74Z" />
		<path id="Path 3" class="shp2" d="M90.7 94.27C90.95 92.14 91.1 89.3 91.18 86.15C91.18 86.15 86.84 87.31 74.89 90.49C62.94 93.67 59.27 94.06 59.27 94.06L61.49 104.08C61.54 104.3 61.58 104.51 61.63 104.73C64.63 106.71 67.81 108.34 71.17 109.84C79.91 105.51 84.91 101.57 84.91 101.57C84.91 101.61 84.91 101.65 84.9 101.7C87.16 99.57 89.18 97.05 90.7 94.27Z" />
		<path id="Path 4" class="shp3" d="M64 32.47C63.9 32.29 66.05 33.84 66.82 34.32C67.59 34.8 68.04 35.17 68.04 35.51C68.04 35.84 67.51 36.18 66.79 36.18C66.07 36.18 64.96 35.94 64.86 35.65C64.86 35.65 66.07 35.6 66.74 35.6L67.32 35.6C67.32 35.6 64.53 33.53 64 32.47ZM79 32.7C79 32.7 76.9 35.25 76.82 35.37C76.74 35.49 76.49 36.06 77.19 35.96C77.9 35.86 79.42 35.51 79.64 35.39C79.85 35.27 79.78 35 79.4 35.04C78.99 35.08 78.03 35.14 77.43 35.25L79.11 32.72C79.11 32.72 79.17 32.49 79 32.7ZM72.71 44.93C72.71 44.93 74.34 44.22 74.9 42.9C75.46 41.58 74.97 41.07 74.01 40.94C73.06 40.81 71.32 40.88 70.53 41.62C69.73 42.36 69.84 43.08 70.42 43.53C71 43.99 72.12 44.75 72.71 44.93Z" />
		<path id="Path 5" class="shp1" d="M71.9 47.44C71.9 47.44 71.54 48.19 70.98 48.63C70.49 49.02 69.84 49.36 68.94 49.41C67.65 49.47 66.82 49.07 66.02 48.51C65.61 48.23 65.23 48 64.95 47.63C64.64 47.26 64.24 47.12 64.24 47.12C64.24 47.12 65.74 55.35 69.39 56.65C73.04 57.95 73.69 55.15 73.81 54.38C73.9 53.72 73.81 50.19 72.16 47.9C72.13 47.29 72.1 47.7 71.9 47.44Z" />
		<path id="Path 6" class="shp3" d="M68.6 49.71L68.57 49.71C65.98 49.69 63.97 46.98 63.89 46.87C63.79 46.74 63.82 46.56 63.95 46.46C64.08 46.37 64.26 46.4 64.35 46.53C64.37 46.55 66.28 49.12 68.58 49.14L68.6 49.14C69.78 49.14 70.88 48.47 71.87 47.15L72.16 46.77L72.36 47.2C72.37 47.21 73.11 48.71 74.35 48.79C75.34 48.85 76.46 47.97 77.59 46.22C77.68 46.09 77.86 46.05 77.99 46.14C78.13 46.23 78.16 46.41 78.08 46.54C76.81 48.5 75.54 49.45 74.31 49.37C73.18 49.3 72.42 48.38 72.06 47.83C71.02 49.08 69.86 49.71 68.6 49.71Z" />
		<path id="Path 7" class="shp0" d="M65.59 72.02C63.99 68.2 65.8 63.81 69.62 62.21C73.44 60.62 77.83 62.42 79.43 66.24C81.03 70.06 79.22 74.46 75.4 76.05C71.58 77.65 67.19 75.85 65.59 72.02Z" />
		<path id="Path 8" fill-rule="evenodd" class="shp4" d="M67.46 82.57L69.76 71.3L63.5 73.92L78.5 54.39L76.2 65.66L82.47 63.05L67.46 82.57ZM71.62 69.05L70.01 77.09L78.27 66.27L74.34 67.91L75.95 59.88L67.69 70.69L71.62 69.05ZM62.8 66.39C62.32 65.25 62.86 63.93 64.01 63.45C65.15 62.97 66.47 63.51 66.95 64.66C67.43 65.8 66.88 67.12 65.74 67.6C64.59 68.08 63.28 67.54 62.8 66.39ZM76.45 74.92C76.11 74.11 76.5 73.18 77.31 72.84C78.12 72.51 79.05 72.89 79.38 73.7C79.72 74.51 79.34 75.44 78.53 75.78C77.72 76.11 76.79 75.73 76.45 74.92ZM79.2 71.1C79.05 70.75 79.22 70.34 79.58 70.19C79.93 70.05 80.34 70.21 80.49 70.57C80.63 70.92 80.47 71.33 80.11 71.48C79.76 71.63 79.35 71.46 79.2 71.1Z" />
		<path id="Path 9" class="shp1" d="M91.75 42.36C91.75 42.36 86.64 46.87 81.58 52.78C76.52 58.7 70.96 62.57 70.96 62.57C70.52 61.52 67.71 59.54 67.71 59.54C67.71 59.54 61.42 55.25 57.3 51.87C54.93 49.92 52.59 47.52 51.02 45.82C50.43 45.79 48.88 45.7 46.99 45.6C56.41 59.6 71.03 63.28 71.03 63.28C72.77 62.99 77.61 59.54 81.22 56.73C84.84 53.91 90.76 47.64 93.15 44.89C94.36 43.5 95.04 42.04 95.43 40.94C93.2 41.71 91.75 42.36 91.75 42.36Z" />
		<path id="Path 10" class="shp0" d="M130.44 7.04L113.53 25.92L111.09 21.93L127.39 0.04L130.44 7.04ZM125.29 34.56L136.39 26.33L134.81 18.87L124.01 28.49L125.29 34.56ZM119.85 98.77L132.11 105.14L138.13 100.45L124.74 94.96L119.85 98.77ZM3.91 11.99L10.04 5.27L28.63 23.27L26.17 27.82L3.91 11.99ZM14.76 32.61L5.36 26.35L0.55 34.07L10.86 38.87L14.76 32.61ZM27.81 105.14L18.72 111.84L24.33 119L32.37 110.95L27.81 105.14Z" />
		<path id="Path 11" class="shp1" d="M51.85 55.99C51.85 55.99 44.24 53.09 41.44 52.32C38.65 51.55 36.91 50.97 33.35 53.58C29.78 56.18 29.88 61.29 29.88 61.29C29.88 61.29 30.74 63.21 30.84 64.18C30.94 65.14 28.43 65.05 26.79 65.05C25.15 65.05 24.96 62.15 26.21 58.78C27.47 55.41 30.07 51.36 30.07 51.36C19.18 57.05 0 70.15 0 70.15C0 70.15 5.88 69.58 16.38 70.64C26.89 71.7 26.31 79.98 26.31 79.98C26.31 79.98 33.35 78.06 37.59 77.77C41.83 77.48 42.12 82.01 42.12 82.01L43.18 89.72C43.18 89.72 44.14 88.47 48.48 85C52.2 82.02 56.25 82.27 57.25 82.39C57.25 82.39 57.25 82.39 57.25 82.39L51.85 55.99Z" />
		<path id="Path 12" fill-rule="evenodd" class="shp4" d="M171.31 84.11C169.45 81.71 168.52 78.25 168.52 73.73L168.52 58.71C168.52 54.09 169.44 50.59 171.29 48.23C173.14 45.87 176.3 44.68 180.79 44.68C185.07 44.68 188.1 45.73 189.88 47.82C191.65 49.9 192.54 52.9 192.54 56.8L192.54 60.32L184.26 60.32L184.26 56.44C184.26 55.19 184.2 54.19 184.08 53.43C183.95 52.67 183.65 52.04 183.14 51.54C182.65 51.04 181.88 50.79 180.84 50.79C179.29 50.79 178.29 51.29 177.84 52.29C177.39 53.3 177.17 54.76 177.17 56.69L177.17 75.75C177.17 77.72 177.42 79.18 177.94 80.15C178.46 81.11 179.43 81.6 180.84 81.6C182.29 81.6 183.22 81.11 183.64 80.12C184.05 79.14 184.26 77.68 184.26 75.75L184.26 71.66L192.54 71.66L192.54 75.13C192.54 79.13 191.66 82.23 189.9 84.42C188.14 86.61 185.1 87.71 180.79 87.71C176.34 87.71 173.18 86.51 171.31 84.11ZM203.83 45.2L213.3 45.2L221.38 87.14L213.51 87.14L211.96 77.92L205.33 77.92L203.72 87.14L195.7 87.14L203.83 45.2ZM211.13 72.64L208.59 55.76L206.11 72.64L211.13 72.64ZM227.44 51.52L220.96 51.52L220.96 45.2L242.4 45.2L242.4 51.52L236.03 51.52L236.03 87.14L227.44 87.14L227.44 51.52Z" />
		<path id="Path 13" fill-rule="evenodd" class="shp5" d="M259.22 45.2L275.48 45.2L275.48 49.55L265.07 49.55L265.07 63.43L273.51 63.43L273.51 67.57L265.07 67.57L265.07 82.95L275.58 82.95L275.58 87.14L259.22 87.14L259.22 45.2ZM280.3 45.2L284.28 45.2L296.19 73.06L296.19 45.2L301.06 45.2L301.06 87.14L297.33 87.14L285.26 58.51L285.26 87.14L280.3 87.14L280.3 45.2ZM307.63 45.2L323.89 45.2L323.89 49.55L313.48 49.55L313.48 63.43L321.92 63.43L321.92 67.57L313.48 67.57L313.48 82.95L323.99 82.95L323.99 87.14L307.63 87.14L307.63 45.2ZM328.7 45.2L337.14 45.2C341.39 45.2 344.5 46.07 346.49 47.82C348.47 49.56 349.46 52.4 349.46 56.33C349.46 61.72 347.74 64.98 344.28 66.12L350.24 87.14L344.6 87.14L339.11 67.46L334.55 67.46L334.55 87.14L328.7 87.14L328.7 45.2ZM336.78 63.27C339.3 63.27 341.1 62.77 342.19 61.77C343.28 60.77 343.82 58.96 343.82 56.33C343.82 54.61 343.63 53.25 343.25 52.27C342.87 51.28 342.2 50.56 341.23 50.09C340.27 49.63 338.9 49.4 337.14 49.4L334.55 49.4L334.55 63.27L336.78 63.27ZM357.33 84.06C355.64 81.66 354.79 78.1 354.79 73.37L354.79 59.34C354.79 56.09 355.13 53.43 355.8 51.34C356.48 49.25 357.63 47.64 359.28 46.52C360.91 45.4 363.17 44.84 366.03 44.84C369.9 44.84 372.68 45.82 374.39 47.79C376.1 49.76 376.96 52.85 376.96 57.06L376.96 58.61L371.47 58.61L371.47 57.32C371.47 55.32 371.35 53.77 371.11 52.68C370.86 51.6 370.35 50.78 369.58 50.22C368.8 49.67 367.65 49.39 366.13 49.39C364.51 49.39 363.3 49.77 362.51 50.51C361.72 51.25 361.21 52.24 360.98 53.48C360.76 54.73 360.65 56.38 360.65 58.46L360.65 73.99C360.65 77.2 361.04 79.5 361.81 80.9C362.59 82.3 364.08 83 366.29 83C368.46 83 369.96 82.24 370.77 80.72C371.58 79.2 371.99 76.76 371.99 73.42L371.99 70.52L366.65 70.52L366.65 66.38L377.27 66.38L377.27 87.14L373.59 87.14L373.02 82.32C371.71 85.88 369.22 87.66 365.56 87.66C361.77 87.66 359.03 86.46 357.33 84.06ZM389.38 72.33L380.32 45.2L385.75 45.2L392.17 65.44L398.49 45.2L403.98 45.2L394.97 72.33L394.97 87.14L389.38 87.14L389.38 72.33Z" />
	</g>
</svg>