<svg xmlns="http://www.w3.org/2000/svg" viewBox="0 0 29 57" width="29" height="57">
	<defs>
		<clipPath clipPathUnits="userSpaceOnUse" id="cp1">
			<path d="M1 1L28 1L28 56L1 56Z" />
		</clipPath>
	</defs>
	<style>
		tspan { white-space:pre }
		.shp0 { fill: #000000 }
	</style>
	<g id="Page 1" clip-path="url(#cp1)">
		<path id="Path 1" fill-rule="evenodd" class="shp0" d="M20.06 56L6.43 56L6.43 30.19L1 30.19L1 17.44L6.26 17.44C5.85 11.67 6.85 7.44 9.3 4.56C11.37 2.1 14.46 0.73 18.47 0.5L28.04 0.5L28.04 12.8L20.53 12.8C20.19 13.43 20.02 14.99 20.02 17.44L27.98 17.44L27.98 30.19L20.06 30.19L20.06 56ZM9.43 53L17.06 53L17.06 27.19L24.98 27.19L24.98 20.44L17.07 20.44L17.04 18.98C16.95 14.9 17.04 11.41 19.05 10.06L19.43 9.8L25.03 9.8L25.03 3.5L18.56 3.5C15.44 3.68 13.13 4.66 11.59 6.49C9.5 8.96 8.77 13.09 9.39 18.78L9.57 20.45L4 20.45L4 27.2L9.43 27.2L9.43 53Z" />
	</g>
</svg>