<svg xmlns="http://www.w3.org/2000/svg" viewBox="0 0 256 47" width="256" height="47">
	<defs>
		<clipPath clipPathUnits="userSpaceOnUse" id="cp1">
			<path d="M0 0L256 0L256 47L0 47Z" />
		</clipPath>
	</defs>
	<style>
		tspan { white-space:pre }
		.shp0 { fill: #111111 } 
	</style>
	<g id="Page 1" clip-path="url(#cp1)">
		<path id="Path 1" fill-rule="evenodd" class="shp0" d="M3.2 43C1.2 40.4 0 36.6 0 31.8L0 15.2C0 10.2 1 6.4 3 3.8C5.2 1.2 8.6 0 13.6 0C18.4 0 21.8 1.2 23.8 3.4C25.8 5.6 26.8 9 26.8 13.2L26.8 17.2L17 17.2L17 12.6C17 10.8 16.8 9.4 16.4 8.6C16 7.8 15.2 7 13.6 7C12.2 7 11.2 7.4 10.8 8.4C10.4 9.4 10.2 11 10.2 12.8L10.2 34.2C10.2 36 10.4 37.4 11 38.4C11.4 39.4 12.4 39.8 13.8 39.8C15.2 39.8 16 39.4 16.4 38.4C16.8 37.4 17 36 17 34.2L17 29.4L26.8 29.4L26.8 33.4C26.8 37.6 25.8 41 23.8 43.4C21.8 45.8 18.4 47 13.6 47C8.8 46.8 5.2 45.6 3.2 43ZM38.6 0.6L50 0.6L58.4 46.2L49.2 46.2L47.6 36.6L41 36.6L39.4 46.2L30 46.2L38.6 0.6ZM46.8 30.6L44.4 12.8L42 30.6L46.8 30.6ZM65.4 8.2L58.6 8.2L58.6 0.6L82.4 0.6L82.4 8L75.6 8L75.6 46.2L65.4 46.2L65.4 8.2ZM118.2 0.6L118.2 5.4L106.8 5.4L106.8 20.4L116 20.4L116 25L106.8 25L106.8 41.8L118.2 41.8L118.2 46.4L100.4 46.4L100.4 0.6L118.2 0.6ZM123.4 0.6L127.8 0.6L140.8 30.8L140.8 0.6L146 0.6L146 46.2L142 46.2L128.8 15L128.8 46.2L123.4 46.2L123.4 0.6ZM152 0.6L169.6 0.6L169.6 5.4L158.2 5.4L158.2 20.4L167.4 20.4L167.4 25L158.2 25L158.2 41.8L169.6 41.8L169.6 46.4L152 46.4L152 0.6ZM184 0.6C188.6 0.6 192 1.6 194.2 3.4C196.4 5.2 197.4 8.4 197.4 12.6C197.4 18.4 195.6 22 191.8 23.2L198.2 46L192 46L186 24.6L181 24.6L181 46L174.6 46L174.6 0.6L184 0.6ZM183.6 20.2C186.4 20.2 188.2 19.6 189.4 18.6C190.6 17.6 191.2 15.6 191.2 12.6C191.2 10.8 191 9.2 190.6 8.2C190.2 7.2 189.4 6.4 188.4 5.8C187.4 5.2 185.8 5 184 5L181.2 5L181.2 20L183.6 20L183.6 20.2ZM205.4 42.8C203.6 40.2 202.6 36.4 202.6 31.2L202.6 16C202.6 12.4 203 9.6 203.6 7.4C204.4 5.2 205.6 3.4 207.4 2.2C209.2 1 211.6 0.4 214.8 0.4C219 0.4 222 1.4 223.8 3.6C225.6 5.8 226.6 9 226.6 13.6L226.6 15.2L220.6 15.2L220.6 13.8C220.6 11.6 220.4 10 220.2 8.8C220 7.6 219.4 6.8 218.6 6.2C217.8 5.6 216.6 5.2 214.8 5.2C213 5.2 211.8 5.6 210.8 6.4C209.8 7.2 209.4 8.2 209.2 9.6C209 11 208.8 12.8 208.8 15L208.8 32C208.8 35.4 209.2 38 210 39.6C210.8 41.2 212.4 41.8 214.8 41.8C217.2 41.8 218.8 41 219.6 39.4C220.4 37.8 221 35.2 221 31.4L221 28.2L215.2 28.2L215.2 23.6L226.8 23.6L226.8 46.2L222.8 46.2L222.2 41C220.8 44.8 218 46.8 214 46.8C210.2 46.8 207.2 45.4 205.4 42.8ZM239.6 30.2L229.8 0.8L235.8 0.8L242.8 22.8L249.6 0.8L255.6 0.8L245.8 30.2L245.8 46.2L239.8 46.2L239.8 30.2L239.6 30.2Z" />
	</g>
</svg>