<svg xmlns="http://www.w3.org/2000/svg" viewBox="0 0 40 41" width="40" height="41">
	<defs>
		<clipPath clipPathUnits="userSpaceOnUse" id="cp1">
			<path d="M0 0L40 0L40 40L0 40Z" />
		</clipPath>
	</defs>
	<style>
		tspan { white-space:pre }
		.shp0 { fill: #000000 } 
	</style>
	<g id="Page 1" clip-path="url(#cp1)">
		<path id="Path 1" class="shp0" d="M35.81 18.96L18.81 18.96L18.81 21.36L35.81 21.36L31.61 25.56L33.41 27.36L39.61 21.16C40.01 20.76 40.01 19.96 39.61 19.36L33.41 13.16L31.61 14.96L35.81 18.96ZM16.21 38.96L16.21 26.56C16.21 25.96 15.61 25.36 15.01 25.36L8.81 25.36L6.21 25.36C6.21 26.76 7.41 27.76 8.61 27.76L13.61 27.76L13.61 37.76L6.21 37.76C4.21 37.96 2.61 36.36 2.41 34.36L2.41 33.96L2.41 6.36C2.41 4.36 4.01 2.76 5.81 2.76L6.21 2.76L13.61 2.76L13.61 12.76L8.81 12.76C7.41 12.76 6.41 13.96 6.41 15.16L15.21 15.16C15.81 15.16 16.41 14.56 16.41 13.96L16.41 1.36C16.21 0.76 15.61 0.16 15.01 0.16L6.21 0.16C3.01 -0.04 0.21 2.56 0.01 5.96L0.01 6.36L0.01 33.76C-0.19 37.16 2.41 39.96 5.81 39.96L6.21 39.96L15.01 39.96C15.61 40.16 16.21 39.56 16.21 38.96Z" />
	</g>
</svg>