<svg xmlns="http://www.w3.org/2000/svg" viewBox="0 0 111 120" width="111" height="120" fill="#fff">
	<defs>
		<clipPath clipPathUnits="userSpaceOnUse" id="cp1">
			<path d="M0 0L111 0L111 120L0 120Z" />
		</clipPath>
	</defs>
	<style>
		tspan { white-space:pre }
		.shp0 { fill: #ffffff }
	</style>
	<g id="Page 1" clip-path="url(#cp1)">
		<path id="Path 1" fill-rule="evenodd" class="shp0" d="M110.96 30.7L110.96 49.46C110.96 52.91 108.15 55.72 104.7 55.72L103.03 55.72L103.03 107.94C103.03 114.59 97.62 120 90.97 120L19.99 120C13.34 120 7.93 114.59 7.93 107.94L7.93 55.72L6.27 55.72C2.81 55.72 0 52.91 0 49.46L0 30.7C0 27.24 2.81 24.43 6.27 24.43L20.2 24.43C16.97 19.78 16.4 13.52 19.28 8.22C23.34 0.71 32.76 -2.1 40.28 1.97C47.49 5.88 52.61 14.19 55.48 19.99C58.35 14.19 63.46 5.87 70.68 1.97C74.32 0 78.51 -0.44 82.48 0.74C86.45 1.92 89.71 4.58 91.68 8.22C93.65 11.86 94.09 16.04 92.91 20.01C92.43 21.62 91.7 23.1 90.78 24.43L104.7 24.43C108.15 24.43 110.96 27.24 110.96 30.7ZM98.23 55.72L57.88 55.72L57.88 83.06L98.23 83.06L98.23 55.72ZM98.23 107.94L98.23 87.86L57.88 87.86L57.88 115.2L90.97 115.2C94.97 115.2 98.23 111.94 98.23 107.94ZM19.99 115.2L53.08 115.2L53.08 87.86L12.73 87.86L12.73 107.94C12.73 111.94 15.98 115.2 19.99 115.2ZM53.08 55.72L12.73 55.72L12.73 83.06L53.08 83.06L53.08 55.72ZM26.97 24.43L52.25 24.43C49.99 19.38 45.04 10.01 37.99 6.19C32.8 3.38 26.3 5.32 23.5 10.5C20.86 15.38 22.45 21.39 26.97 24.43ZM58.71 24.43L83.99 24.43C86.05 23.05 87.59 21.05 88.31 18.64C89.12 15.91 88.82 13.01 87.46 10.5C86.1 7.99 83.84 6.16 81.11 5.34C78.37 4.53 75.48 4.83 72.97 6.19C65.92 10 60.97 19.38 58.71 24.43ZM106.16 30.7C106.16 29.9 105.49 29.23 104.7 29.23L6.27 29.23C5.47 29.23 4.8 29.9 4.8 30.7L4.8 49.46C4.8 50.27 5.46 50.92 6.27 50.92L10.32 50.92C10.32 50.92 10.32 50.92 10.33 50.92C10.33 50.92 10.33 50.92 10.33 50.92L55.47 50.92C55.48 50.92 55.48 50.92 55.48 50.92C55.48 50.92 55.48 50.92 55.49 50.92L100.62 50.92C100.62 50.92 100.63 50.92 100.63 50.92C100.63 50.92 100.63 50.92 100.63 50.92L104.7 50.92C105.5 50.92 106.16 50.27 106.16 49.46L106.16 30.7Z" />
	</g>
</svg>